<svg width="298" height="41" viewBox="0 0 298 41" fill="none" xmlns="http://www.w3.org/2000/svg">
<g filter="url(#filter0_i_1_25)">
<path d="M0.0568182 32L4.88636 2.90909H17.5C19.7159 2.90909 21.5294 3.20739 22.9403 3.80398C24.3608 4.40057 25.3646 5.24337 25.9517 6.33239C26.5483 7.4214 26.7235 8.70454 26.4773 10.1818C26.2879 11.2424 25.8807 12.2131 25.2557 13.0938C24.6402 13.965 23.8589 14.7036 22.9119 15.3097C21.9744 15.9062 20.928 16.3182 19.7727 16.5455L19.7159 16.8295C20.9659 16.8674 22.0549 17.1799 22.983 17.767C23.911 18.3447 24.5928 19.1496 25.0284 20.1818C25.464 21.2045 25.5682 22.3977 25.3409 23.7614C25.0758 25.3523 24.4271 26.768 23.3949 28.0085C22.3627 29.2491 21.0227 30.2244 19.375 30.9347C17.7273 31.6449 15.8523 32 13.75 32H0.0568182ZM9.03409 25.6932H12.7273C14.0341 25.6932 15.0616 25.4422 15.8097 24.9403C16.5672 24.4384 17.017 23.7045 17.1591 22.7386C17.2727 22.0568 17.2159 21.4792 16.9886 21.0057C16.7614 20.5322 16.3778 20.1723 15.8381 19.9261C15.2983 19.6799 14.6212 19.5568 13.8068 19.5568H10L9.03409 25.6932ZM10.8523 14.6705H14.0909C14.7727 14.6705 15.3977 14.5616 15.9659 14.3438C16.5341 14.1259 17.0028 13.8087 17.3722 13.392C17.7415 12.9754 17.9735 12.4735 18.0682 11.8864C18.2102 10.9773 17.9924 10.286 17.4148 9.8125C16.8466 9.33902 16.0795 9.10227 15.1136 9.10227H11.7614L10.8523 14.6705ZM33.3119 32.3409C31.9294 32.3409 30.7409 32.1136 29.7466 31.6591C28.7617 31.1951 28.042 30.4943 27.5875 29.5568C27.1424 28.6098 27.043 27.4167 27.2892 25.9773C27.4881 24.7841 27.8621 23.7661 28.4114 22.9233C28.9606 22.0805 29.6424 21.3892 30.4568 20.8494C31.2712 20.3097 32.185 19.8977 33.1983 19.6136C34.221 19.3201 35.3006 19.1307 36.4369 19.0455C37.668 18.9508 38.667 18.8324 39.4341 18.6903C40.2011 18.5483 40.7741 18.3542 41.1528 18.108C41.5316 17.8617 41.7589 17.5303 41.8347 17.1136V17.0568C41.9199 16.4886 41.7684 16.053 41.3801 15.75C41.0013 15.447 40.471 15.2955 39.7892 15.2955C39.0506 15.2955 38.4114 15.4564 37.8716 15.7784C37.3413 16.1004 36.9767 16.6023 36.7778 17.2841H29.5619C29.865 15.9583 30.4852 14.7367 31.4227 13.6193C32.3697 12.4924 33.6244 11.5928 35.1869 10.9205C36.7589 10.2386 38.6339 9.89773 40.8119 9.89773C42.365 9.89773 43.7286 10.0824 44.9028 10.4517C46.0771 10.8116 47.0477 11.3182 47.8148 11.9716C48.5913 12.6155 49.1358 13.3731 49.4483 14.2443C49.7703 15.1061 49.846 16.0436 49.6756 17.0568L47.1756 32H39.846L40.3574 28.9318H40.1869C39.6188 29.7462 38.9795 30.4044 38.2693 30.9062C37.5686 31.4081 36.8015 31.7727 35.9682 32C35.1443 32.2273 34.2589 32.3409 33.3119 32.3409ZM36.721 27.3977C37.3081 27.3977 37.8858 27.2746 38.454 27.0284C39.0222 26.7822 39.5098 26.4271 39.917 25.9631C40.3242 25.4991 40.5847 24.9356 40.6983 24.2727L40.9824 22.4545C40.7741 22.5398 40.542 22.6203 40.2864 22.696C40.0402 22.7623 39.7797 22.8286 39.5051 22.8949C39.24 22.9612 38.9559 23.0227 38.6528 23.0795C38.3593 23.1364 38.0562 23.1932 37.7437 23.25C37.1187 23.3447 36.5932 23.5009 36.167 23.7188C35.7409 23.9271 35.4095 24.1875 35.1727 24.5C34.936 24.803 34.7892 25.1439 34.7324 25.5227C34.6472 26.1193 34.7845 26.5833 35.1443 26.9148C35.5136 27.2367 36.0392 27.3977 36.721 27.3977ZM59.1913 32.2841C57.6383 32.2841 56.2747 31.8769 55.1004 31.0625C53.9357 30.2481 53.0976 29.0123 52.5862 27.3551C52.0843 25.6979 52.0417 23.6098 52.4584 21.0909C52.894 18.4583 53.6563 16.3182 54.7453 14.6705C55.8438 13.0227 57.1033 11.8153 58.5237 11.0483C59.9536 10.2812 61.3883 9.89773 62.8277 9.89773C63.9072 9.89773 64.8211 10.0871 65.5692 10.4659C66.3268 10.8352 66.9281 11.3324 67.3732 11.9574C67.8182 12.5729 68.1213 13.25 68.2822 13.9886H68.3959L70.2425 2.90909H78.0834L73.2538 32H65.4697L66.0663 28.4205H65.8959C65.4697 29.1591 64.9252 29.822 64.2624 30.4091C63.6089 30.9867 62.8561 31.446 62.0038 31.7869C61.1516 32.1184 60.2141 32.2841 59.1913 32.2841ZM63.0834 26.2614C63.8031 26.2614 64.4565 26.053 65.0436 25.6364C65.6307 25.2102 66.1279 24.6136 66.5351 23.8466C66.9423 23.0701 67.2311 22.1515 67.4016 21.0909C67.5815 20.0114 67.5957 19.0881 67.4442 18.321C67.2927 17.5445 66.9896 16.9527 66.5351 16.5455C66.09 16.1288 65.5076 15.9205 64.7879 15.9205C64.0682 15.9205 63.4196 16.1288 62.8419 16.5455C62.2643 16.9527 61.7766 17.5445 61.3788 18.321C60.9906 19.0881 60.7065 20.0114 60.5266 21.0909C60.3466 22.1705 60.323 23.0985 60.4555 23.875C60.5976 24.642 60.8911 25.2339 61.3362 25.6506C61.7813 26.0578 62.3637 26.2614 63.0834 26.2614ZM81.1396 10.1818H88.9805L85.2021 32.7386C84.8802 34.642 84.2267 36.1335 83.2419 37.2131C82.2571 38.3021 81.0023 39.0691 79.4777 39.5142C77.9625 39.9593 76.2438 40.1818 74.3214 40.1818C74.0847 40.1818 73.848 40.1771 73.6112 40.1676C73.365 40.1581 73.0999 40.1439 72.8158 40.125L73.7817 34.3295C73.9427 34.3485 74.0989 34.3627 74.2504 34.3722C74.4019 34.3816 74.5487 34.3864 74.6908 34.3864C75.6283 34.3864 76.2911 34.2396 76.6794 33.946C77.0677 33.6525 77.3139 33.1932 77.418 32.5682L81.1396 10.1818ZM85.401 7.90909C84.3404 7.90909 83.4834 7.55871 82.83 6.85795C82.1766 6.14773 81.9351 5.30492 82.1055 4.32955C82.276 3.33523 82.7968 2.49242 83.668 1.80114C84.5392 1.10038 85.5052 0.75 86.5658 0.75C87.6358 0.75 88.4881 1.10038 89.1226 1.80114C89.7571 2.49242 89.9938 3.33523 89.8328 4.32955C89.6813 5.30492 89.1699 6.14773 88.2987 6.85795C87.437 7.55871 86.4711 7.90909 85.401 7.90909ZM128.136 13.8182H120.239C120.295 13.1458 120.258 12.5398 120.125 12C119.992 11.4602 119.765 10.9962 119.443 10.608C119.121 10.2102 118.7 9.9072 118.179 9.69886C117.658 9.49053 117.038 9.38636 116.318 9.38636C114.936 9.38636 113.7 9.73201 112.611 10.4233C111.522 11.1051 110.617 12.0852 109.898 13.3636C109.178 14.6326 108.667 16.1477 108.364 17.9091C108.098 19.6136 108.089 21.0294 108.335 22.1562C108.591 23.2831 109.088 24.1259 109.827 24.6847C110.575 25.2434 111.545 25.5227 112.739 25.5227C113.534 25.5227 114.263 25.428 114.926 25.2386C115.598 25.0492 116.195 24.7794 116.716 24.429C117.246 24.0691 117.696 23.643 118.065 23.1506C118.444 22.6487 118.733 22.0947 118.932 21.4886H126.886C126.583 22.7197 126.044 23.9792 125.267 25.267C124.491 26.5455 123.487 27.7244 122.256 28.804C121.025 29.8741 119.576 30.7405 117.909 31.4034C116.242 32.0663 114.367 32.3977 112.284 32.3977C109.557 32.3977 107.204 31.8011 105.224 30.608C103.255 29.4148 101.825 27.6723 100.935 25.3807C100.054 23.089 99.8788 20.2955 100.409 17C100.939 13.8182 101.986 11.1525 103.548 9.00284C105.111 6.85322 107.009 5.2339 109.244 4.14489C111.479 3.05587 113.856 2.51136 116.375 2.51136C118.278 2.51136 119.983 2.76231 121.489 3.2642C123.004 3.7661 124.277 4.5 125.31 5.46591C126.351 6.42235 127.118 7.60133 127.611 9.00284C128.103 10.4044 128.278 12.0095 128.136 13.8182ZM129.25 32L132.886 10.1818H140.5L139.818 14.3295H140.046C140.699 12.7955 141.518 11.6733 142.503 10.9631C143.488 10.2528 144.563 9.89773 145.727 9.89773C146.068 9.89773 146.395 9.92614 146.708 9.98295C147.029 10.0303 147.347 10.0966 147.659 10.1818L146.523 16.8864C146.154 16.7443 145.694 16.6449 145.145 16.5881C144.596 16.5218 144.108 16.4886 143.682 16.4886C142.924 16.4886 142.214 16.6638 141.551 17.0142C140.898 17.3551 140.339 17.8381 139.875 18.4631C139.421 19.0786 139.118 19.803 138.966 20.6364L137.091 32H129.25ZM156.142 32.3977C153.812 32.3977 151.88 31.9527 150.346 31.0625C148.812 30.1629 147.733 28.875 147.108 27.1989C146.483 25.5133 146.369 23.4962 146.767 21.1477C147.145 18.8939 147.927 16.9242 149.11 15.2386C150.304 13.553 151.805 12.2415 153.613 11.304C155.431 10.3665 157.467 9.89773 159.721 9.89773C161.369 9.89773 162.813 10.1534 164.054 10.6648C165.304 11.1761 166.322 11.9195 167.108 12.8949C167.894 13.8703 168.424 15.0492 168.698 16.4318C168.983 17.8049 168.983 19.358 168.698 21.0909L168.414 22.9091H148.926L149.608 18.5909H161.88C161.975 17.9659 161.913 17.4167 161.696 16.9432C161.487 16.4602 161.151 16.0862 160.687 15.821C160.233 15.5464 159.683 15.4091 159.039 15.4091C158.395 15.4091 157.789 15.5464 157.221 15.821C156.662 16.0956 156.184 16.4792 155.787 16.9716C155.398 17.464 155.138 18.0417 155.005 18.7045L154.153 23.25C154.039 23.9508 154.082 24.5758 154.281 25.125C154.48 25.6742 154.825 26.1051 155.318 26.4176C155.81 26.7301 156.445 26.8864 157.221 26.8864C157.751 26.8864 158.253 26.8153 158.727 26.6733C159.21 26.5218 159.636 26.304 160.005 26.0199C160.384 25.7263 160.687 25.3712 160.914 24.9545H168.073C167.562 26.4697 166.752 27.786 165.644 28.9034C164.546 30.0114 163.192 30.8731 161.582 31.4886C159.982 32.0947 158.168 32.3977 156.142 32.3977ZM176.503 32.3409C175.12 32.3409 173.932 32.1136 172.937 31.6591C171.952 31.1951 171.233 30.4943 170.778 29.5568C170.333 28.6098 170.234 27.4167 170.48 25.9773C170.679 24.7841 171.053 23.7661 171.602 22.9233C172.151 22.0805 172.833 21.3892 173.647 20.8494C174.462 20.3097 175.376 19.8977 176.389 19.6136C177.412 19.3201 178.491 19.1307 179.628 19.0455C180.859 18.9508 181.858 18.8324 182.625 18.6903C183.392 18.5483 183.965 18.3542 184.343 18.108C184.722 17.8617 184.95 17.5303 185.025 17.1136V17.0568C185.111 16.4886 184.959 16.053 184.571 15.75C184.192 15.447 183.662 15.2955 182.98 15.2955C182.241 15.2955 181.602 15.4564 181.062 15.7784C180.532 16.1004 180.167 16.6023 179.968 17.2841H172.753C173.056 15.9583 173.676 14.7367 174.613 13.6193C175.56 12.4924 176.815 11.5928 178.378 10.9205C179.95 10.2386 181.825 9.89773 184.003 9.89773C185.556 9.89773 186.919 10.0824 188.093 10.4517C189.268 10.8116 190.238 11.3182 191.005 11.9716C191.782 12.6155 192.326 13.3731 192.639 14.2443C192.961 15.1061 193.037 16.0436 192.866 17.0568L190.366 32H183.037L183.548 28.9318H183.378C182.809 29.7462 182.17 30.4044 181.46 30.9062C180.759 31.4081 179.992 31.7727 179.159 32C178.335 32.2273 177.45 32.3409 176.503 32.3409ZM179.912 27.3977C180.499 27.3977 181.076 27.2746 181.645 27.0284C182.213 26.7822 182.7 26.4271 183.108 25.9631C183.515 25.4991 183.775 24.9356 183.889 24.2727L184.173 22.4545C183.965 22.5398 183.733 22.6203 183.477 22.696C183.231 22.7623 182.97 22.8286 182.696 22.8949C182.431 22.9612 182.146 23.0227 181.843 23.0795C181.55 23.1364 181.247 23.1932 180.934 23.25C180.309 23.3447 179.784 23.5009 179.358 23.7188C178.932 23.9271 178.6 24.1875 178.363 24.5C178.127 24.803 177.98 25.1439 177.923 25.5227C177.838 26.1193 177.975 26.5833 178.335 26.9148C178.704 27.2367 179.23 27.3977 179.912 27.3977ZM211.16 10.1818L210.194 15.8636H195.819L196.785 10.1818H211.16ZM200.422 4.95455H208.263L204.939 24.983C204.891 25.286 204.901 25.5417 204.967 25.75C205.033 25.9489 205.166 26.1004 205.365 26.2045C205.573 26.2992 205.848 26.3466 206.189 26.3466C206.416 26.3466 206.695 26.3182 207.027 26.2614C207.358 26.1951 207.609 26.1477 207.78 26.1193L208.007 31.6307C207.609 31.7443 207.074 31.8722 206.402 32.0142C205.739 32.1657 204.967 32.2652 204.087 32.3125C202.249 32.3977 200.753 32.2036 199.598 31.7301C198.452 31.2566 197.657 30.518 197.212 29.5142C196.776 28.5009 196.7 27.2367 196.984 25.7216L200.422 4.95455ZM211.124 32L214.76 10.1818H222.601L218.964 32H211.124ZM219.021 7.90909C217.961 7.90909 217.104 7.55871 216.45 6.85795C215.797 6.14773 215.555 5.30492 215.726 4.32955C215.896 3.33523 216.417 2.49242 217.288 1.80114C218.16 1.10038 219.125 0.75 220.186 0.75C221.256 0.75 222.108 1.10038 222.743 1.80114C223.377 2.49242 223.614 3.33523 223.453 4.32955C223.302 5.30492 222.79 6.14773 221.919 6.85795C221.057 7.55871 220.091 7.90909 219.021 7.90909ZM233.814 32.3977C231.447 32.3977 229.496 31.929 227.962 30.9915C226.437 30.0445 225.367 28.7282 224.752 27.0426C224.136 25.3475 224.013 23.3826 224.382 21.1477C224.752 18.9129 225.523 16.9527 226.698 15.267C227.872 13.572 229.382 12.2557 231.229 11.3182C233.075 10.3712 235.187 9.89773 237.564 9.89773C239.922 9.89773 241.863 10.3712 243.388 11.3182C244.922 12.2557 245.997 13.572 246.612 15.267C247.237 16.9527 247.365 18.9129 246.996 21.1477C246.627 23.3826 245.85 25.3475 244.666 27.0426C243.483 28.7282 241.967 30.0445 240.121 30.9915C238.284 31.929 236.181 32.3977 233.814 32.3977ZM234.78 26.6023C235.462 26.6023 236.082 26.3797 236.641 25.9347C237.209 25.4896 237.692 24.8551 238.09 24.0312C238.497 23.2074 238.795 22.2273 238.985 21.0909C239.174 19.9451 239.202 18.965 239.07 18.1506C238.937 17.3267 238.663 16.6922 238.246 16.2472C237.829 15.8021 237.28 15.5795 236.598 15.5795C235.916 15.5795 235.291 15.8021 234.723 16.2472C234.155 16.6922 233.672 17.3267 233.274 18.1506C232.877 18.965 232.583 19.9451 232.394 21.0909C232.204 22.2273 232.171 23.2074 232.294 24.0312C232.427 24.8551 232.701 25.4896 233.118 25.9347C233.544 26.3797 234.098 26.6023 234.78 26.6023ZM258.703 19.7273L256.657 32H248.816L252.453 10.1818H259.896L259.214 14.3295H259.441C260.133 12.9375 261.141 11.8532 262.467 11.0767C263.802 10.2907 265.275 9.89773 266.885 9.89773C268.428 9.89773 269.711 10.2481 270.734 10.9489C271.757 11.6496 272.481 12.6155 272.907 13.8466C273.333 15.0777 273.409 16.4886 273.135 18.0795L270.805 32H262.964L265.01 19.7273C265.189 18.6477 265.057 17.8002 264.612 17.1847C264.176 16.5691 263.456 16.2614 262.453 16.2614C261.818 16.2614 261.236 16.4034 260.706 16.6875C260.185 16.9621 259.749 17.3598 259.399 17.8807C259.058 18.392 258.826 19.0076 258.703 19.7273ZM297.348 17.2841H290.303C290.341 16.8295 290.26 16.4413 290.062 16.1193C289.863 15.7973 289.583 15.5511 289.223 15.3807C288.873 15.2102 288.475 15.125 288.03 15.125C287.254 15.125 286.548 15.3002 285.914 15.6506C285.279 15.9915 284.924 16.4413 284.848 17C284.801 17.2178 284.872 17.4214 285.062 17.6108C285.251 17.8002 285.748 17.9754 286.553 18.1364L290.871 18.9318C293.03 19.3295 294.602 20.054 295.587 21.1051C296.581 22.1468 296.941 23.5246 296.667 25.2386C296.411 26.7254 295.758 28.0038 294.706 29.0739C293.655 30.1439 292.32 30.9678 290.701 31.5455C289.091 32.1136 287.311 32.3977 285.36 32.3977C281.922 32.3977 279.347 31.7112 277.633 30.3381C275.928 28.965 275.151 27.1705 275.303 24.9545H282.917C282.936 25.6648 283.172 26.1998 283.627 26.5597C284.091 26.91 284.706 27.0947 285.473 27.1136C286.307 27.142 287.036 26.9763 287.661 26.6165C288.286 26.2472 288.636 25.7879 288.712 25.2386C288.74 24.9261 288.603 24.6894 288.3 24.5284C288.007 24.3674 287.443 24.2064 286.61 24.0455L282.86 23.3636C280.701 22.9754 279.129 22.1989 278.144 21.0341C277.159 19.8598 276.818 18.3636 277.121 16.5455C277.367 15.0966 277.955 13.8797 278.883 12.8949C279.82 11.91 281.051 11.1667 282.576 10.6648C284.1 10.1534 285.862 9.89773 287.86 9.89773C291.127 9.89773 293.598 10.5559 295.275 11.8722C296.96 13.179 297.651 14.983 297.348 17.2841Z" fill="black"/>
</g>
<defs>
<filter id="filter0_i_1_25" x="0.0568237" y="0.75" width="297.746" height="43.4318" filterUnits="userSpaceOnUse" color-interpolation-filters="sRGB">
<feFlood flood-opacity="0" result="BackgroundImageFix"/>
<feBlend mode="normal" in="SourceGraphic" in2="BackgroundImageFix" result="shape"/>
<feColorMatrix in="SourceAlpha" type="matrix" values="0 0 0 0 0 0 0 0 0 0 0 0 0 0 0 0 0 0 127 0" result="hardAlpha"/>
<feOffset dy="4"/>
<feGaussianBlur stdDeviation="2"/>
<feComposite in2="hardAlpha" operator="arithmetic" k2="-1" k3="1"/>
<feColorMatrix type="matrix" values="0 0 0 0 0 0 0 0 0 0 0 0 0 0 0 0 0 0 0.25 0"/>
<feBlend mode="normal" in2="shape" result="effect1_innerShadow_1_25"/>
</filter>
</defs>
</svg>
